<?xml version="1.0" encoding="UTF-8" standalone="no"?>
<!-- Created with Inkscape (http://www.inkscape.org/) -->

<svg
   width="185mm"
   height="125mm"
   viewBox="0 0 185 125"
   version="1.1"
   id="svg5"
   inkscape:version="1.1 (c68e22c387, 2021-05-23)"
   sodipodi:docname="pistol.svg"
   xmlns:inkscape="http://www.inkscape.org/namespaces/inkscape"
   xmlns:sodipodi="http://sodipodi.sourceforge.net/DTD/sodipodi-0.dtd"
   xmlns="http://www.w3.org/2000/svg"
   xmlns:svg="http://www.w3.org/2000/svg">
  <sodipodi:namedview
     id="namedview7"
     pagecolor="#505050"
     bordercolor="#ffffff"
     borderopacity="1"
     inkscape:pageshadow="0"
     inkscape:pageopacity="0"
     inkscape:pagecheckerboard="1"
     inkscape:document-units="mm"
     showgrid="false"
     inkscape:snap-nodes="false"
     showguides="false"
     inkscape:zoom="0.45254834"
     inkscape:cx="756.82523"
     inkscape:cy="113.8"
     inkscape:window-width="1600"
     inkscape:window-height="837"
     inkscape:window-x="-8"
     inkscape:window-y="-8"
     inkscape:window-maximized="1"
     inkscape:current-layer="layer1" />
  <defs
     id="defs2" />
  <g
     inkscape:label="Layer 1"
     inkscape:groupmode="layer"
     id="layer1">
    <rect
       style="fill:#796300;fill-opacity:1;stroke:#555555;stroke-width:7.75396;stroke-linecap:square;stroke-miterlimit:4;stroke-dasharray:none;stroke-opacity:0;paint-order:stroke fill markers"
       id="rect3455"
       width="152.66873"
       height="33.926884"
       x="31.752869"
       y="1.9920797" />
    <path
       style="fill:#796300;fill-opacity:1;stroke:#555555;stroke-width:28.5496;stroke-linecap:square;stroke-miterlimit:4;stroke-dasharray:none;stroke-opacity:0;paint-order:stroke fill markers"
       d="M 0.89651473,34.996818 C 1.2857557,34.591787 14.013562,25.459367 21.020045,18.177455 28.026527,10.895541 30.285023,7.5530835 31.042058,5.5136631 l 1.243589,-3.350158 V 18.948359 35.733215 H 16.237211 c -15.63804227,0 -16.03031534,-0.01884 -15.34069627,-0.736397 z"
       id="path4363"
       sodipodi:nodetypes="ssscccss" />
    <path
       style="fill:#796300;fill-opacity:1;stroke:#555555;stroke-width:19.5455;stroke-linecap:square;stroke-miterlimit:4;stroke-dasharray:none;stroke-opacity:0;paint-order:stroke fill markers"
       d="m 10.219709,119.54487 2.429601,-3.03011 7.090986,-53.197 C 22.714627,41.004168 0.70992073,35.516387 0.77344173,35.44672 1.0278267,35.167765 23.640846,34.477136 36.408895,34.854544 c 7.469275,0.220783 14.277453,0.04767 15.123744,0.118974 l 2.328929,0.196215 3.905758,17.575249 -4.69145,69.147838 -15.2472,0.17199 c -8.385968,0.0946 -18.575262,0.24808 -22.642901,0.34107 l -7.3956845,0.16908 z"
       id="path5509"
       sodipodi:nodetypes="ccsssscccsscc" />
    <path
       style="fill:#796300;fill-opacity:1;stroke:#555555;stroke-width:19.5455;stroke-linecap:square;stroke-miterlimit:4;stroke-dasharray:none;stroke-opacity:0;paint-order:stroke fill markers"
       d="m 51.666375,61.733983 v -2.162526 h 13.722908 13.722906 l 2.831635,-2.640032 2.831635,-2.640035 -0.124201,-9.544747 -0.124192,-9.544746 1.286045,-0.003 c 0.70733,-0.0017 1.71595,-0.08086 2.2414,-0.176048 l 0.955356,-0.173072 -0.14886,2.951474 c -0.08188,1.623307 -0.219998,6.054157 -0.306959,9.846334 l -0.158104,6.894859 -4.105247,4.521116 -4.105255,4.521116 -14.259534,0.155907 -14.259533,0.155912 z"
       id="path6377" />
    <path
       id="rect7450"
       style="fill:#808080;stroke:#555555;stroke-width:8.10859;stroke-linecap:square;stroke-opacity:0;paint-order:stroke fill markers"
       d="M 34.900537,5.5959911 180.12006,5.9979884 179.92158,31.460118 9.5899373,32.862773 C 19.31195,24.755995 31.911885,14.339894 34.900537,5.5959911 Z"
       sodipodi:nodetypes="ccccc" />
    <path
       id="rect8911"
       style="fill:#808080;stroke:#555555;stroke-width:8.86975;stroke-linecap:square;stroke-opacity:0;paint-order:stroke fill markers"
       d="m 10.44831,37.813623 41.462666,0.910866 c 5.303252,27.321047 1.256477,51.384581 -1.379237,78.985251 L 16.235915,115.48349 C 15.112095,87.25942 35.620492,46.483614 10.44831,37.813623 Z"
       sodipodi:nodetypes="ccccc" />
  </g>
</svg>
